<svg width="512" height="512" viewBox="0 0 512 512" fill="none" xmlns="http://www.w3.org/2000/svg">
  <!-- Background with gradient -->
  <defs>
    <linearGradient id="bg-gradient" x1="0%" y1="0%" x2="0%" y2="100%">
      <stop offset="0%" style="stop-color:#0ea5e9;stop-opacity:1" />
      <stop offset="100%" style="stop-color:#0369a1;stop-opacity:1" />
    </linearGradient>
    <linearGradient id="tooth-gradient" x1="0%" y1="0%" x2="0%" y2="100%">
      <stop offset="0%" style="stop-color:#ffffff;stop-opacity:1" />
      <stop offset="100%" style="stop-color:#f8fafc;stop-opacity:1" />
    </linearGradient>
  </defs>
  
  <!-- Rounded rectangle background -->
  <rect width="512" height="512" rx="64" fill="url(#bg-gradient)"/>
  
  <!-- White circle background for tooth -->
  <circle cx="256" cy="256" r="165" fill="rgba(255,255,255,0.95)" stroke="rgba(255,255,255,0.5)" stroke-width="4"/>
  
  <!-- Tooth shape -->
  <g transform="translate(256,256)">
    <!-- Main tooth body -->
    <path d="M-58 -85 C-58 -101, -48 -112, -32 -112 L32 -112 C48 -112, 58 -101, 58 -85 L58 21 C58 48, 48 75, 32 85 L21 96 C11 106, -11 106, -21 96 L-32 85 C-48 75, -58 48, -58 21 Z" 
          fill="url(#tooth-gradient)" 
          stroke="#0ea5e9" 
          stroke-width="5"/>
    
    <!-- Tooth ridges -->
    <line x1="-21" y1="-85" x2="-21" y2="-53" stroke="#e2e8f0" stroke-width="4" opacity="0.6"/>
    <line x1="0" y1="-85" x2="0" y2="-48" stroke="#e2e8f0" stroke-width="4" opacity="0.6"/>
    <line x1="21" y1="-85" x2="21" y2="-53" stroke="#e2e8f0" stroke-width="4" opacity="0.6"/>
    
    <!-- Highlight -->
    <ellipse cx="-21" cy="-48" rx="11" ry="16" fill="rgba(255,255,255,0.4)"/>
    
    <!-- Root details -->
    <path d="M-32 75 C-32 80, -27 85, -21 85 L-11 96 C-5 101, 5 101, 11 96 L21 85 C27 85, 32 80, 32 75" 
          stroke="#0ea5e9" 
          stroke-width="4" 
          fill="none" 
          opacity="0.7"/>
  </g>
  
  <!-- Subtle glow effect -->
  <circle cx="256" cy="256" r="165" fill="none" stroke="rgba(14,165,233,0.2)" stroke-width="8"/>
</svg>width="512" height="512" viewBox="0 0 512 512" fill="none" xmlns="http://www.w3.org/2000/svg">
  <rect width="512" height="512" rx="64" fill="#0ea5e9"/>
  <circle cx="256" cy="256" r="160" fill="white"/>
  <text x="256" y="300" font-family="Arial, sans-serif" font-size="120" fill="#0ea5e9" text-anchor="middle">🦷</text>
</svg>
