<svg width="96" height="96" viewBox="0 0 96 96" fill="none" xmlns="http://www.w3.org/2000/svg">
  <defs>
    <linearGradient id="bg-gradient" x1="0%" y1="0%" x2="100%" y2="100%">
      <stop offset="0%" style="stop-color:#3b82f6;stop-opacity:1" />
      <stop offset="100%" style="stop-color:#1d4ed8;stop-opacity:1" />
    </linearGradient>
  </defs>
  
  <!-- Background -->
  <rect width="96" height="96" rx="12" fill="url(#bg-gradient)"/>
  
  <!-- Profile icon -->
  <g transform="translate(48,48)">
    <!-- Person circle -->
    <circle cx="0" cy="-8" r="12" fill="white"/>
    <circle cx="0" cy="-12" r="6" fill="#3b82f6"/>
    <path d="M-8 -2 C-8 -6, -4 -8, 0 -8 C4 -8, 8 -6, 8 -2 L8 4 C8 8, 4 12, 0 12 C-4 12, -8 8, -8 4 Z" fill="#3b82f6"/>
    
    <!-- Appointment list -->
    <g transform="translate(0, 12)">
      <rect x="-16" y="0" width="32" height="20" rx="4" fill="white" opacity="0.9"/>
      
      <!-- List items -->
      <g stroke="#3b82f6" stroke-width="1" fill="none">
        <line x1="-12" y1="4" x2="12" y2="4"/>
        <line x1="-12" y1="8" x2="8" y2="8"/>
        <line x1="-12" y1="12" x2="12" y2="12"/>
        <line x1="-12" y1="16" x2="6" y2="16"/>
      </g>
      
      <!-- Checkmarks -->
      <g stroke="white" stroke-width="2" fill="#10b981">
        <circle cx="10" cy="4" r="3"/>
        <path d="M8 4 L9.5 5.5 L12 2.5" stroke="#10b981" fill="none" stroke-width="1"/>
      </g>
    </g>
  </g>
</svg>
