<svg width="96" height="96" viewBox="0 0 96 96" fill="none" xmlns="http://www.w3.org/2000/svg">
  <defs>
    <linearGradient id="bg-gradient" x1="0%" y1="0%" x2="100%" y2="100%">
      <stop offset="0%" style="stop-color:#8b5cf6;stop-opacity:1" />
      <stop offset="100%" style="stop-color:#7c3aed;stop-opacity:1" />
    </linearGradient>
  </defs>
  
  <!-- Background -->
  <rect width="96" height="96" rx="12" fill="url(#bg-gradient)"/>
  
  <!-- Chat icon -->
  <g transform="translate(48,48)">
    <!-- Main chat bubble -->
    <path d="M-18 -12 C-18 -18, -12 -20, -6 -20 L14 -20 C20 -20, 22 -16, 22 -12 L22 4 C22 8, 18 12, 14 12 L2 12 L-8 20 L-8 12 L-6 12 C-12 12, -18 8, -18 4 Z" fill="white"/>
    
    <!-- Chat dots -->
    <circle cx="-6" cy="-4" r="2" fill="#8b5cf6"/>
    <circle cx="2" cy="-4" r="2" fill="#8b5cf6"/>
    <circle cx="10" cy="-4" r="2" fill="#8b5cf6"/>
    
    <!-- Small response bubble -->
    <path d="M12 2 C12 0, 14 -2, 16 -2 L20 -2 C22 -2, 24 0, 24 2 L24 6 C24 8, 22 10, 20 10 L18 10 L16 12 L16 10 L16 10 C14 10, 12 8, 12 6 Z" fill="rgba(255,255,255,0.7)"/>
    
    <!-- Tooth emoji in response -->
    <text x="18" y="8" font-family="Arial, sans-serif" font-size="8" fill="#8b5cf6" text-anchor="middle">🦷</text>
  </g>
</svg>
